<?xml version="1.0" ?><svg id="Layer_1" style="enable-background:new 0 0 128 128;" version="1.1" viewBox="0 0 128 128" xml:space="preserve" xmlns="http://www.w3.org/2000/svg" xmlns:xlink="http://www.w3.org/1999/xlink"><style type="text/css">
	.st0{fill:#231F20;}
	.st1{fill:#FFD488;}
	.st2{fill:#E2B760;}
</style><path class="st0" d="M105.8,75.5c3.9-3.4,6.9-8.1,6.5-13.2c-0.3-4.1-2.9-6.8-6.2-8.6c4.6-3.1,7.7-8.1,6.8-14.2  c-1-6.1-7.1-11.8-13.4-11.6c-1.9-6.1-7.1-11.3-13.7-11.8c-5-0.4-9.4,2.4-11.5,6.5c-3.4-3.9-8.1-6.9-13.2-6.5  c-4.1,0.3-6.8,2.9-8.6,6.2c-3.1-4.5-7.9-7.5-13.8-6.8c-6.4,0.8-11,6.6-10.3,12.7C21.7,30,16.9,35,16.1,42.3  c-0.7,5.9,1.7,11.5,6.4,14c-3.9,3.4-6.9,8.1-6.4,13.2c0.3,4.1,2.9,6.8,6.2,8.6c-4.5,3.1-7.5,7.9-6.8,13.8  c0.8,6.5,6.6,11.1,12.8,10.3c4,11.1,22.4,13.2,27.6,3.5c3.4,3.8,8.1,6.8,13.1,6.3c4.1-0.3,6.8-2.9,8.6-6.2c3.1,4.5,7.9,7.5,13.8,6.8  c6.4-0.8,11-6.6,10.3-12.7c5.7-1.7,10.3-6.6,10.8-12.9C112.7,81.9,109.9,77.6,105.8,75.5z"/><path class="st1" d="M70.7,27.9L56.6,99.2c-1.1-0.7-3.3-1.3-3.2,0.8c0.7,11.9-19.1,7.9-20.8-1.3c-0.3-1.8-1.7-2.6-3.3-1.9  c-5,2-9.3-2-8.5-7.3c0.4-2.4,1.5-4.1,3.1-5.5c0.1-0.1,0.3-0.2,0.4-0.3c1.6-1.2,2.9-3.6,4.9-4.2c2.6-0.7,3.4-3.2,0.8-3.8  c-4-0.9-9.1-2.4-8.6-7.5c0.5-4.6,5-8.3,8.8-10.3c2.4-1.2,1-3.6-1.7-3.4c-2.1,0.1-4.9-3.3-5-3.4c-2.2-2.1-2.8-5.6-2.1-9  c0.6-2.9,2.4-5.2,4.8-6.7c0.1,0,0.2-0.1,0.4-0.1c0-0.1,0.1-0.1,0.1-0.2c1.4-0.8,2.9-1.2,4.7-1.4c3.1-0.4,3-2.5,2.7-3.4  c-1.9-5,2-9.3,7.3-8.5c4.8,0.8,8.5,4,9.5,8.4c0.7,2.6,3.6,3.5,4.2,0.9c0.9-4,2.4-9.1,7.4-8.6C65.2,22.9,68.7,25.7,70.7,27.9z"/><path class="st2" d="M97.9,95.3c-1.5,0.1-3.2,1.9-2.7,3.4c1.9,5-2,9.3-7.3,8.5c-4.8-0.8-8.6-3.7-9.7-8.1c-0.7-2.6-3.5-3.8-4.1-1.1  c-0.9,4-2.4,9.1-7.4,8.6c-4.6-0.5-9.9-7.2-10.1-7.3l13-72.6c1.5,1.3,2.5,2.9,3.4,4.4c1.2,2.4,3.7,0.2,3.6-2.5  c-0.3-4.6,4.9-7.5,9.7-6.3c4.1,1,8.3,5,8.1,9.3c0,1.3,1.8,3.2,3.4,2.7c4.6-1.6,9.5,3.6,9.4,8c-0.1,5.2-2.9,10-7.4,11.2  c-2.6,0.7-4.7,3.1-2,3.7c4,0.9,9.1,2.4,8.6,7.4c-0.5,4.6-5,8.3-8.8,10.3c-2.4,1.2-1,3.7,1.8,3.6C110.5,77.7,107.3,95,97.9,95.3z"/><circle class="st0" cx="45.8" cy="46.9" r="2.8"/><circle class="st0" cx="64" cy="46.9" r="2.8"/><circle class="st0" cx="82.2" cy="46.9" r="2.8"/><circle class="st0" cx="45.8" cy="65.1" r="2.8"/><circle class="st0" cx="64" cy="65.1" r="2.8"/><circle class="st0" cx="82.2" cy="65.1" r="2.8"/><circle class="st0" cx="45.8" cy="83.2" r="2.8"/><circle class="st0" cx="64" cy="83.2" r="2.8"/><circle class="st0" cx="82.2" cy="83.2" r="2.8"/></svg>